<mxfile host="app.diagrams.net" modified="2021-10-20T06:55:04.542Z" agent="5.0 (Windows)" etag="NSB5VCmoRCI3kRVZG6C2" version="15.3.7" type="github">
  <diagram id="kgpKYQtTHZ0yAKxKKP6v" name="Page-1">
    <mxGraphModel dx="1422" dy="714" grid="1" gridSize="10" guides="1" tooltips="1" connect="1" arrows="1" fold="1" page="1" pageScale="1" pageWidth="850" pageHeight="1100" math="0" shadow="0">
      <root>
        <mxCell id="0" />
        <mxCell id="1" parent="0" />
        <mxCell id="3nuBFxr9cyL0pnOWT2aG-5" value="login" style="shape=umlLifeline;perimeter=lifelinePerimeter;container=1;collapsible=0;recursiveResize=0;rounded=0;shadow=0;strokeWidth=1;fillColor=#fff2cc;strokeColor=#d6b656;" parent="1" vertex="1">
          <mxGeometry x="270" y="80" width="100" height="880" as="geometry" />
        </mxCell>
        <mxCell id="BLAWV7pPiUWXEbQhkTYL-23" value="" style="verticalLabelPosition=bottom;verticalAlign=top;html=1;shape=mxgraph.basic.patternFillRect;fillStyle=diag;step=5;fillStrokeWidth=0.2;fillStrokeColor=#dddddd;strokeWidth=1;direction=south;fillColor=#fff2cc;strokeColor=#d6b656;" vertex="1" parent="3nuBFxr9cyL0pnOWT2aG-5">
          <mxGeometry x="40" y="140" width="20" height="90" as="geometry" />
        </mxCell>
        <mxCell id="BLAWV7pPiUWXEbQhkTYL-1" value="product" style="shape=umlLifeline;perimeter=lifelinePerimeter;container=1;collapsible=0;recursiveResize=0;rounded=0;shadow=0;strokeWidth=1;fillColor=#fff2cc;strokeColor=#d6b656;" vertex="1" parent="1">
          <mxGeometry x="410" y="75" width="100" height="890" as="geometry" />
        </mxCell>
        <mxCell id="BLAWV7pPiUWXEbQhkTYL-30" value="" style="verticalLabelPosition=bottom;verticalAlign=top;html=1;shape=mxgraph.basic.patternFillRect;fillStyle=diag;step=5;fillStrokeWidth=0.2;fillStrokeColor=#dddddd;strokeWidth=1;direction=south;fillColor=#fff2cc;strokeColor=#d6b656;" vertex="1" parent="BLAWV7pPiUWXEbQhkTYL-1">
          <mxGeometry x="40" y="290" width="20" height="50" as="geometry" />
        </mxCell>
        <mxCell id="BLAWV7pPiUWXEbQhkTYL-3" value="cart" style="shape=umlLifeline;perimeter=lifelinePerimeter;container=1;collapsible=0;recursiveResize=0;rounded=0;shadow=0;strokeWidth=1;fillColor=#fff2cc;strokeColor=#d6b656;" vertex="1" parent="1">
          <mxGeometry x="540" y="80" width="100" height="860" as="geometry" />
        </mxCell>
        <mxCell id="BLAWV7pPiUWXEbQhkTYL-33" value="" style="verticalLabelPosition=bottom;verticalAlign=top;html=1;shape=mxgraph.basic.patternFillRect;fillStyle=diag;step=5;fillStrokeWidth=0.2;fillStrokeColor=#dddddd;strokeWidth=1;direction=south;fillColor=#fff2cc;strokeColor=#d6b656;" vertex="1" parent="BLAWV7pPiUWXEbQhkTYL-3">
          <mxGeometry x="40" y="380" width="20" height="50" as="geometry" />
        </mxCell>
        <mxCell id="BLAWV7pPiUWXEbQhkTYL-5" value="review" style="shape=umlLifeline;perimeter=lifelinePerimeter;container=1;collapsible=0;recursiveResize=0;rounded=0;shadow=0;strokeWidth=1;fillColor=#fff2cc;strokeColor=#d6b656;" vertex="1" parent="1">
          <mxGeometry x="670" y="80" width="100" height="880" as="geometry" />
        </mxCell>
        <mxCell id="BLAWV7pPiUWXEbQhkTYL-40" value="" style="verticalLabelPosition=bottom;verticalAlign=top;html=1;shape=mxgraph.basic.patternFillRect;fillStyle=diag;step=5;fillStrokeWidth=0.2;fillStrokeColor=#dddddd;strokeWidth=1;direction=south;fillColor=#fff2cc;strokeColor=#d6b656;" vertex="1" parent="BLAWV7pPiUWXEbQhkTYL-5">
          <mxGeometry x="40" y="470" width="20" height="50" as="geometry" />
        </mxCell>
        <mxCell id="BLAWV7pPiUWXEbQhkTYL-6" value="order" style="shape=umlLifeline;perimeter=lifelinePerimeter;container=1;collapsible=0;recursiveResize=0;rounded=0;shadow=0;strokeWidth=1;fillColor=#fff2cc;strokeColor=#d6b656;" vertex="1" parent="1">
          <mxGeometry x="790" y="80" width="100" height="880" as="geometry" />
        </mxCell>
        <mxCell id="BLAWV7pPiUWXEbQhkTYL-46" value="" style="verticalLabelPosition=bottom;verticalAlign=top;html=1;shape=mxgraph.basic.patternFillRect;fillStyle=diag;step=5;fillStrokeWidth=0.2;fillStrokeColor=#dddddd;strokeWidth=1;direction=south;fillColor=#fff2cc;strokeColor=#d6b656;" vertex="1" parent="BLAWV7pPiUWXEbQhkTYL-6">
          <mxGeometry x="40" y="550" width="20" height="50" as="geometry" />
        </mxCell>
        <mxCell id="BLAWV7pPiUWXEbQhkTYL-7" value="profie" style="shape=umlLifeline;perimeter=lifelinePerimeter;container=1;collapsible=0;recursiveResize=0;rounded=0;shadow=0;strokeWidth=1;fillColor=#fff2cc;strokeColor=#d6b656;" vertex="1" parent="1">
          <mxGeometry x="910" y="80" width="100" height="880" as="geometry" />
        </mxCell>
        <mxCell id="BLAWV7pPiUWXEbQhkTYL-51" value="" style="verticalLabelPosition=bottom;verticalAlign=top;html=1;shape=mxgraph.basic.patternFillRect;fillStyle=diag;step=5;fillStrokeWidth=0.2;fillStrokeColor=#dddddd;strokeWidth=1;direction=south;fillColor=#fff2cc;strokeColor=#d6b656;" vertex="1" parent="BLAWV7pPiUWXEbQhkTYL-7">
          <mxGeometry x="40" y="640" width="20" height="50" as="geometry" />
        </mxCell>
        <mxCell id="BLAWV7pPiUWXEbQhkTYL-8" value="" style="shape=umlActor;verticalLabelPosition=bottom;verticalAlign=top;html=1;outlineConnect=0;strokeWidth=3;" vertex="1" parent="1">
          <mxGeometry x="160" y="70" width="30" height="60" as="geometry" />
        </mxCell>
        <mxCell id="BLAWV7pPiUWXEbQhkTYL-14" value="" style="endArrow=none;dashed=1;html=1;fillColor=#fff2cc;strokeColor=#d6b656;startArrow=none;" edge="1" parent="1" target="BLAWV7pPiUWXEbQhkTYL-8">
          <mxGeometry width="50" height="50" relative="1" as="geometry">
            <mxPoint x="175" y="195" as="sourcePoint" />
            <mxPoint x="190" y="150" as="targetPoint" />
          </mxGeometry>
        </mxCell>
        <mxCell id="BLAWV7pPiUWXEbQhkTYL-17" value="" style="endArrow=none;dashed=1;html=1;fillColor=#fff2cc;strokeColor=#d6b656;startArrow=none;" edge="1" parent="1" source="BLAWV7pPiUWXEbQhkTYL-18">
          <mxGeometry width="50" height="50" relative="1" as="geometry">
            <mxPoint x="174.5" y="1511" as="sourcePoint" />
            <mxPoint x="175" y="200" as="targetPoint" />
          </mxGeometry>
        </mxCell>
        <mxCell id="BLAWV7pPiUWXEbQhkTYL-21" style="edgeStyle=none;rounded=0;orthogonalLoop=1;jettySize=auto;html=1;exitX=0.25;exitY=0;exitDx=0;exitDy=0;exitPerimeter=0;entryX=0.25;entryY=1;entryDx=0;entryDy=0;entryPerimeter=0;" edge="1" parent="1" source="BLAWV7pPiUWXEbQhkTYL-18" target="BLAWV7pPiUWXEbQhkTYL-23">
          <mxGeometry relative="1" as="geometry">
            <mxPoint x="300" y="243" as="targetPoint" />
          </mxGeometry>
        </mxCell>
        <mxCell id="BLAWV7pPiUWXEbQhkTYL-24" style="edgeStyle=none;rounded=0;orthogonalLoop=1;jettySize=auto;html=1;exitX=0.75;exitY=0;exitDx=0;exitDy=0;exitPerimeter=0;entryX=0.75;entryY=1;entryDx=0;entryDy=0;entryPerimeter=0;" edge="1" parent="1" source="BLAWV7pPiUWXEbQhkTYL-18" target="BLAWV7pPiUWXEbQhkTYL-23">
          <mxGeometry relative="1" as="geometry" />
        </mxCell>
        <mxCell id="BLAWV7pPiUWXEbQhkTYL-18" value="" style="verticalLabelPosition=bottom;verticalAlign=top;html=1;shape=mxgraph.basic.patternFillRect;fillStyle=diag;step=5;fillStrokeWidth=0.2;fillStrokeColor=#dddddd;strokeWidth=1;direction=south;fillColor=#fff2cc;strokeColor=#d6b656;" vertex="1" parent="1">
          <mxGeometry x="165" y="220" width="20" height="90" as="geometry" />
        </mxCell>
        <mxCell id="BLAWV7pPiUWXEbQhkTYL-19" value="" style="endArrow=none;dashed=1;html=1;fillColor=#fff2cc;strokeColor=#d6b656;startArrow=none;" edge="1" parent="1" source="BLAWV7pPiUWXEbQhkTYL-27" target="BLAWV7pPiUWXEbQhkTYL-18">
          <mxGeometry width="50" height="50" relative="1" as="geometry">
            <mxPoint x="174.5" y="1511" as="sourcePoint" />
            <mxPoint x="175" y="200" as="targetPoint" />
          </mxGeometry>
        </mxCell>
        <mxCell id="BLAWV7pPiUWXEbQhkTYL-20" value="logout" style="shape=umlLifeline;perimeter=lifelinePerimeter;container=1;collapsible=0;recursiveResize=0;rounded=0;shadow=0;strokeWidth=1;fillColor=#fff2cc;strokeColor=#d6b656;" vertex="1" parent="1">
          <mxGeometry x="1040" y="80" width="100" height="880" as="geometry" />
        </mxCell>
        <mxCell id="BLAWV7pPiUWXEbQhkTYL-22" value="User Name " style="text;html=1;align=center;verticalAlign=middle;resizable=0;points=[];autosize=1;strokeColor=none;fillColor=none;" vertex="1" parent="1">
          <mxGeometry x="200" y="220" width="70" height="20" as="geometry" />
        </mxCell>
        <mxCell id="BLAWV7pPiUWXEbQhkTYL-25" value="password" style="text;html=1;align=center;verticalAlign=middle;resizable=0;points=[];autosize=1;strokeColor=none;fillColor=none;" vertex="1" parent="1">
          <mxGeometry x="200" y="260" width="70" height="20" as="geometry" />
        </mxCell>
        <mxCell id="BLAWV7pPiUWXEbQhkTYL-31" style="edgeStyle=none;rounded=0;orthogonalLoop=1;jettySize=auto;html=1;exitX=0.5;exitY=0;exitDx=0;exitDy=0;exitPerimeter=0;entryX=0.5;entryY=1;entryDx=0;entryDy=0;entryPerimeter=0;" edge="1" parent="1" source="BLAWV7pPiUWXEbQhkTYL-27" target="BLAWV7pPiUWXEbQhkTYL-30">
          <mxGeometry relative="1" as="geometry" />
        </mxCell>
        <mxCell id="BLAWV7pPiUWXEbQhkTYL-27" value="" style="verticalLabelPosition=bottom;verticalAlign=top;html=1;shape=mxgraph.basic.patternFillRect;fillStyle=diag;step=5;fillStrokeWidth=0.2;fillStrokeColor=#dddddd;strokeWidth=1;direction=south;fillColor=#fff2cc;strokeColor=#d6b656;" vertex="1" parent="1">
          <mxGeometry x="165" y="360" width="20" height="50" as="geometry" />
        </mxCell>
        <mxCell id="BLAWV7pPiUWXEbQhkTYL-29" value="" style="endArrow=none;dashed=1;html=1;fillColor=#fff2cc;strokeColor=#d6b656;startArrow=none;" edge="1" parent="1" source="BLAWV7pPiUWXEbQhkTYL-34" target="BLAWV7pPiUWXEbQhkTYL-27">
          <mxGeometry width="50" height="50" relative="1" as="geometry">
            <mxPoint x="174.5" y="1511" as="sourcePoint" />
            <mxPoint x="174.98194221508834" y="310" as="targetPoint" />
          </mxGeometry>
        </mxCell>
        <mxCell id="BLAWV7pPiUWXEbQhkTYL-32" value="view product" style="text;html=1;align=center;verticalAlign=middle;resizable=0;points=[];autosize=1;strokeColor=none;fillColor=none;" vertex="1" parent="1">
          <mxGeometry x="310" y="360" width="80" height="20" as="geometry" />
        </mxCell>
        <mxCell id="BLAWV7pPiUWXEbQhkTYL-38" style="edgeStyle=none;rounded=0;orthogonalLoop=1;jettySize=auto;html=1;exitX=0.5;exitY=0;exitDx=0;exitDy=0;exitPerimeter=0;entryX=0.5;entryY=1;entryDx=0;entryDy=0;entryPerimeter=0;" edge="1" parent="1" source="BLAWV7pPiUWXEbQhkTYL-34" target="BLAWV7pPiUWXEbQhkTYL-33">
          <mxGeometry relative="1" as="geometry" />
        </mxCell>
        <mxCell id="BLAWV7pPiUWXEbQhkTYL-34" value="" style="verticalLabelPosition=bottom;verticalAlign=top;html=1;shape=mxgraph.basic.patternFillRect;fillStyle=diag;step=5;fillStrokeWidth=0.2;fillStrokeColor=#dddddd;strokeWidth=1;direction=south;fillColor=#fff2cc;strokeColor=#d6b656;" vertex="1" parent="1">
          <mxGeometry x="165" y="460" width="20" height="50" as="geometry" />
        </mxCell>
        <mxCell id="BLAWV7pPiUWXEbQhkTYL-35" value="" style="endArrow=none;dashed=1;html=1;fillColor=#fff2cc;strokeColor=#d6b656;startArrow=none;" edge="1" parent="1" source="BLAWV7pPiUWXEbQhkTYL-41" target="BLAWV7pPiUWXEbQhkTYL-34">
          <mxGeometry width="50" height="50" relative="1" as="geometry">
            <mxPoint x="174.5" y="1511" as="sourcePoint" />
            <mxPoint x="174.98889875666077" y="410" as="targetPoint" />
          </mxGeometry>
        </mxCell>
        <mxCell id="BLAWV7pPiUWXEbQhkTYL-39" value="view category" style="text;html=1;align=center;verticalAlign=middle;resizable=0;points=[];autosize=1;strokeColor=none;fillColor=none;" vertex="1" parent="1">
          <mxGeometry x="325" y="460" width="90" height="20" as="geometry" />
        </mxCell>
        <mxCell id="BLAWV7pPiUWXEbQhkTYL-43" style="edgeStyle=none;rounded=0;orthogonalLoop=1;jettySize=auto;html=1;exitX=0.5;exitY=0;exitDx=0;exitDy=0;exitPerimeter=0;entryX=0.5;entryY=1;entryDx=0;entryDy=0;entryPerimeter=0;" edge="1" parent="1" source="BLAWV7pPiUWXEbQhkTYL-41" target="BLAWV7pPiUWXEbQhkTYL-40">
          <mxGeometry relative="1" as="geometry" />
        </mxCell>
        <mxCell id="BLAWV7pPiUWXEbQhkTYL-41" value="" style="verticalLabelPosition=bottom;verticalAlign=top;html=1;shape=mxgraph.basic.patternFillRect;fillStyle=diag;step=5;fillStrokeWidth=0.2;fillStrokeColor=#dddddd;strokeWidth=1;direction=south;fillColor=#fff2cc;strokeColor=#d6b656;" vertex="1" parent="1">
          <mxGeometry x="165" y="550" width="20" height="50" as="geometry" />
        </mxCell>
        <mxCell id="BLAWV7pPiUWXEbQhkTYL-42" value="" style="endArrow=none;dashed=1;html=1;fillColor=#fff2cc;strokeColor=#d6b656;startArrow=none;" edge="1" parent="1" source="BLAWV7pPiUWXEbQhkTYL-47" target="BLAWV7pPiUWXEbQhkTYL-41">
          <mxGeometry width="50" height="50" relative="1" as="geometry">
            <mxPoint x="174.5" y="1511" as="sourcePoint" />
            <mxPoint x="174.9878167641325" y="510" as="targetPoint" />
          </mxGeometry>
        </mxCell>
        <mxCell id="BLAWV7pPiUWXEbQhkTYL-45" value="review product" style="text;html=1;align=center;verticalAlign=middle;resizable=0;points=[];autosize=1;strokeColor=none;fillColor=none;" vertex="1" parent="1">
          <mxGeometry x="345" y="550" width="90" height="20" as="geometry" />
        </mxCell>
        <mxCell id="BLAWV7pPiUWXEbQhkTYL-49" style="edgeStyle=none;rounded=0;orthogonalLoop=1;jettySize=auto;html=1;exitX=0.5;exitY=0;exitDx=0;exitDy=0;exitPerimeter=0;entryX=0.5;entryY=1;entryDx=0;entryDy=0;entryPerimeter=0;" edge="1" parent="1" source="BLAWV7pPiUWXEbQhkTYL-47" target="BLAWV7pPiUWXEbQhkTYL-46">
          <mxGeometry relative="1" as="geometry" />
        </mxCell>
        <mxCell id="BLAWV7pPiUWXEbQhkTYL-47" value="" style="verticalLabelPosition=bottom;verticalAlign=top;html=1;shape=mxgraph.basic.patternFillRect;fillStyle=diag;step=5;fillStrokeWidth=0.2;fillStrokeColor=#dddddd;strokeWidth=1;direction=south;fillColor=#fff2cc;strokeColor=#d6b656;" vertex="1" parent="1">
          <mxGeometry x="165" y="630" width="20" height="50" as="geometry" />
        </mxCell>
        <mxCell id="BLAWV7pPiUWXEbQhkTYL-48" value="" style="endArrow=none;dashed=1;html=1;fillColor=#fff2cc;strokeColor=#d6b656;startArrow=none;" edge="1" parent="1" source="BLAWV7pPiUWXEbQhkTYL-52" target="BLAWV7pPiUWXEbQhkTYL-47">
          <mxGeometry width="50" height="50" relative="1" as="geometry">
            <mxPoint x="174.5" y="1511" as="sourcePoint" />
            <mxPoint x="174.98664529914527" y="600" as="targetPoint" />
          </mxGeometry>
        </mxCell>
        <mxCell id="BLAWV7pPiUWXEbQhkTYL-50" value="order product" style="text;html=1;align=center;verticalAlign=middle;resizable=0;points=[];autosize=1;strokeColor=none;fillColor=none;" vertex="1" parent="1">
          <mxGeometry x="470" y="630" width="90" height="20" as="geometry" />
        </mxCell>
        <mxCell id="BLAWV7pPiUWXEbQhkTYL-55" style="edgeStyle=none;rounded=0;orthogonalLoop=1;jettySize=auto;html=1;exitX=0.5;exitY=0;exitDx=0;exitDy=0;exitPerimeter=0;entryX=0.5;entryY=1;entryDx=0;entryDy=0;entryPerimeter=0;" edge="1" parent="1" source="BLAWV7pPiUWXEbQhkTYL-52" target="BLAWV7pPiUWXEbQhkTYL-51">
          <mxGeometry relative="1" as="geometry" />
        </mxCell>
        <mxCell id="BLAWV7pPiUWXEbQhkTYL-52" value="" style="verticalLabelPosition=bottom;verticalAlign=top;html=1;shape=mxgraph.basic.patternFillRect;fillStyle=diag;step=5;fillStrokeWidth=0.2;fillStrokeColor=#dddddd;strokeWidth=1;direction=south;fillColor=#fff2cc;strokeColor=#d6b656;" vertex="1" parent="1">
          <mxGeometry x="165" y="720" width="20" height="50" as="geometry" />
        </mxCell>
        <mxCell id="BLAWV7pPiUWXEbQhkTYL-53" value="" style="endArrow=none;dashed=1;html=1;fillColor=#fff2cc;strokeColor=#d6b656;startArrow=none;" edge="1" parent="1" source="BLAWV7pPiUWXEbQhkTYL-60" target="BLAWV7pPiUWXEbQhkTYL-52">
          <mxGeometry width="50" height="50" relative="1" as="geometry">
            <mxPoint x="174.5" y="1511" as="sourcePoint" />
            <mxPoint x="174.9853971962616" y="680" as="targetPoint" />
          </mxGeometry>
        </mxCell>
        <mxCell id="BLAWV7pPiUWXEbQhkTYL-56" value="view and edit profile" style="text;html=1;align=center;verticalAlign=middle;resizable=0;points=[];autosize=1;strokeColor=none;fillColor=none;" vertex="1" parent="1">
          <mxGeometry x="590" y="720" width="120" height="20" as="geometry" />
        </mxCell>
        <mxCell id="BLAWV7pPiUWXEbQhkTYL-59" value="" style="verticalLabelPosition=bottom;verticalAlign=top;html=1;shape=mxgraph.basic.patternFillRect;fillStyle=diag;step=5;fillStrokeWidth=0.2;fillStrokeColor=#dddddd;strokeWidth=1;direction=south;fillColor=#fff2cc;strokeColor=#d6b656;" vertex="1" parent="1">
          <mxGeometry x="1080" y="810" width="20" height="50" as="geometry" />
        </mxCell>
        <mxCell id="BLAWV7pPiUWXEbQhkTYL-63" style="edgeStyle=none;rounded=0;orthogonalLoop=1;jettySize=auto;html=1;exitX=0.5;exitY=0;exitDx=0;exitDy=0;exitPerimeter=0;entryX=0.5;entryY=1;entryDx=0;entryDy=0;entryPerimeter=0;" edge="1" parent="1" source="BLAWV7pPiUWXEbQhkTYL-60" target="BLAWV7pPiUWXEbQhkTYL-59">
          <mxGeometry relative="1" as="geometry" />
        </mxCell>
        <mxCell id="BLAWV7pPiUWXEbQhkTYL-60" value="" style="verticalLabelPosition=bottom;verticalAlign=top;html=1;shape=mxgraph.basic.patternFillRect;fillStyle=diag;step=5;fillStrokeWidth=0.2;fillStrokeColor=#dddddd;strokeWidth=1;direction=south;fillColor=#fff2cc;strokeColor=#d6b656;" vertex="1" parent="1">
          <mxGeometry x="165" y="810" width="20" height="50" as="geometry" />
        </mxCell>
        <mxCell id="BLAWV7pPiUWXEbQhkTYL-62" value="" style="endArrow=none;dashed=1;html=1;fillColor=#fff2cc;strokeColor=#d6b656;" edge="1" parent="1" target="BLAWV7pPiUWXEbQhkTYL-60">
          <mxGeometry width="50" height="50" relative="1" as="geometry">
            <mxPoint x="175" y="960" as="sourcePoint" />
            <mxPoint x="174.98368146214102" y="770" as="targetPoint" />
          </mxGeometry>
        </mxCell>
        <mxCell id="BLAWV7pPiUWXEbQhkTYL-64" value="logout" style="text;html=1;align=center;verticalAlign=middle;resizable=0;points=[];autosize=1;strokeColor=none;fillColor=none;" vertex="1" parent="1">
          <mxGeometry x="735" y="810" width="50" height="20" as="geometry" />
        </mxCell>
        <mxCell id="BLAWV7pPiUWXEbQhkTYL-66" value="&lt;b&gt;&lt;font style=&quot;font-size: 15px&quot;&gt;User&lt;/font&gt;&lt;/b&gt;" style="text;html=1;align=center;verticalAlign=middle;resizable=0;points=[];autosize=1;strokeColor=none;fillColor=none;" vertex="1" parent="1">
          <mxGeometry x="185" y="140" width="50" height="20" as="geometry" />
        </mxCell>
      </root>
    </mxGraphModel>
  </diagram>
</mxfile>
